<?xml version="1.0" encoding="UTF-8"?>
<svg width="500" height="500" version="1.1" viewBox="0 0 100 100" xmlns="http://www.w3.org/2000/svg">
 <g transform="matrix(.83541 0 0 .83541 -43.404 -79.471)" stroke="#525252">
  <path transform="matrix(1.2854 -.74179 -.7587 -1.3147 164.61 444.44)" d="m91.34 185.22a14.708 14.381 1.1687e-13 0 1-7.9518 2.283 14.708 14.381 1.1687e-13 0 1-0.10093-0.00707l-44.354-5.7e-4a14.708 14.381 1.1687e-13 0 1-0.10794 0.00755 14.708 14.381 1.1687e-13 0 1-14.708-14.381 14.708 14.381 1.1687e-13 0 1 14.708-14.381 14.708 14.381 1.1687e-13 0 1 0.066012 0.00152l44.467 7.1e-4a14.708 14.381 1.1687e-13 0 1 0.029652-0.00215 14.708 14.381 1.1687e-13 0 1 14.708 14.381 14.708 14.381 1.1687e-13 0 1-6.7561 12.098z" fill="#737373"/>
  <path transform="matrix(1.2851 .74227 .75922 -1.3144 -98.149 320.64)" d="m30.871 185.22a14.381 14.708 89.966 0 1-6.7562-12.098 14.381 14.708 89.966 0 1 14.708-14.381 14.381 14.708 89.966 0 1 0.025159 0.00176l44.51-5e-5a14.381 14.708 89.966 0 1 0.027796-0.00209 14.381 14.708 89.966 0 1 14.708 14.381 14.381 14.708 89.966 0 1-14.708 14.381 14.381 14.708 89.966 0 1-0.099933-0.00699l-44.157 1.6e-4a14.381 14.708 89.966 0 1-0.30634 0.00737 14.381 14.708 89.966 0 1-7.9517-2.2828z" fill="#a3a3a3"/>
  <path transform="matrix(.00026644 -1.4841 -1.5179 -.00031327 345.93 245.72)" d="m98.093 173.12a14.381 14.708 89.966 0 1-14.708 14.381 14.381 14.708 89.966 0 1-0.097039-0.00679l-44.36-9e-5a14.381 14.708 89.966 0 1-0.10586 0.00737 14.381 14.708 89.966 0 1-14.708-14.381 14.381 14.708 89.966 0 1 14.708-14.381 14.381 14.708 89.966 0 1 0.022054 0.00155l44.463-2.1e-4a14.381 14.708 89.966 0 1 0.077822-0.00183 14.381 14.708 89.966 0 1 14.708 14.381z" fill="#d4d4d4"/>
 </g>
</svg>
