<?xml version="1.0" encoding="UTF-8" standalone="no"?>
<!-- Created with Inkscape (http://www.inkscape.org/) -->

<svg
   width="32mm"
   height="32mm"
   viewBox="0 0 32 32"
   version="1.1"
   id="svg5"
   xml:space="preserve"
   inkscape:export-filename="tubo.png"
   inkscape:export-xdpi="96"
   inkscape:export-ydpi="96"
   inkscape:version="1.2.1 (9c6d41e410, 2022-07-14)"
   sodipodi:docname="tubo.svg"
   xmlns:inkscape="http://www.inkscape.org/namespaces/inkscape"
   xmlns:sodipodi="http://sodipodi.sourceforge.net/DTD/sodipodi-0.dtd"
   xmlns="http://www.w3.org/2000/svg"
   xmlns:svg="http://www.w3.org/2000/svg"><sodipodi:namedview
     id="namedview7"
     pagecolor="#ffffff"
     bordercolor="#000000"
     borderopacity="0.25"
     inkscape:showpageshadow="2"
     inkscape:pageopacity="0.0"
     inkscape:pagecheckerboard="0"
     inkscape:deskcolor="#d1d1d1"
     inkscape:document-units="px"
     showgrid="false"
     inkscape:zoom="5.346279"
     inkscape:cx="61.63165"
     inkscape:cy="37.689765"
     inkscape:window-width="1920"
     inkscape:window-height="1172"
     inkscape:window-x="0"
     inkscape:window-y="0"
     inkscape:window-maximized="1"
     inkscape:current-layer="layer1" /><defs
     id="defs2"><style
       id="style53">.fa-secondary{opacity:.4}</style><clipPath
       clipPathUnits="userSpaceOnUse"
       id="clipPath2281"><path
         id="path2283"
         style="fill:#ff0000;fill-opacity:1;fill-rule:nonzero;stroke:none;stroke-width:0.264583"
         d="M 5.1009805,6.4631711 V 25.536942 H 26.899134 V 6.4631711 H 16.82998 c 0.0154,0.036242 0.03117,0.072087 0.04806,0.107487 -0.126911,0.120668 -0.269893,0.223031 -0.415478,0.3209107 0.03167,-0.00534 0.066,-0.00861 0.102836,-0.0093 0.146786,-0.00277 0.293489,-0.00642 0.440283,-0.00878 0.109527,-8.731e-4 0.219757,-0.00148 0.329179,0.00465 0.01419,7.937e-4 0.03511,-0.00637 0.05013,-0.0062 0.009,9.82e-5 0.01606,0.00308 0.01809,0.011369 0.04288,0.1750369 0.04303,0.3574822 0.06459,0.5364014 -0.137476,0.0305 -0.279596,0.031727 -0.419612,0.040308 -0.02428,4.498e-4 -0.04858,6.879e-4 -0.07286,0.00103 0.0014,0.011962 0.0025,0.024011 0.0031,0.03669 0.0019,0.039912 -0.02392,0.076528 -0.03566,0.1147214 -0.06552,0.1149025 -0.179517,0.1756865 -0.295073,0.2294435 -0.0056,0.00267 -0.01091,0.00573 -0.01654,0.00827 -0.01892,0.1303784 -0.09927,0.2434857 -0.224793,0.2206582 h -0.05168 c -0.02335,0.0041 -0.05002,0.00763 -0.05374,0.00827 -0.05884,0.00954 -0.117583,0.019362 -0.176733,0.026872 -0.03252,0.00296 -0.06459,0.0069 -0.09663,0.012401 -0.03383,0.00595 -0.06757,0.00933 -0.101803,0.011885 -0.02549,0.00175 -0.05146,0.00268 -0.077,0.0031 -0.05723,0.00481 -0.109955,-0.00984 -0.163815,-0.027905 -0.07351,-0.043334 -0.03993,-0.018008 -0.101286,-0.074414 -0.01114,-0.010239 -0.02077,-0.019804 -0.02946,-0.028939 -0.03979,-0.011888 -0.07906,-0.026038 -0.117306,-0.042375 -0.01008,-0.00539 -0.102586,-0.051372 -0.101802,-0.065629 0.0027,-0.04949 0.0035,-0.096483 0.0036,-0.1410769 v -5.291e-4 c -0.0039,-0.022916 -0.0035,-0.050202 0,-0.081649 5.6e-5,-5.027e-4 -5.7e-5,-0.00103 0,-0.00156 0.0011,-0.079459 0.0061,-0.1462831 0.02946,-0.1922362 0.0049,-0.036957 0.0095,-0.077253 0.0124,-0.1209231 0.02033,-0.014211 0.04106,-0.027101 0.06253,-0.038757 8.2e-4,-0.0072 0.0011,-0.013007 0.0021,-0.020672 -0.204794,-0.043545 -0.271063,-0.3077093 0.01602,-0.5343342 0.13945,-0.110082 0.287944,-0.2072711 0.439767,-0.2992067 z M 16.764868,6.6187173 c -0.0057,0.00177 -0.01142,0.00374 -0.01705,0.00568 5.29e-4,6.879e-4 8.99e-4,0.0014 0.0016,0.00206 0.0036,0.00455 0.021,-0.00948 0.0155,-0.00775 z m -0.250631,2.1461221 c 0.01281,1.974e-4 0.01926,0.00868 0.01705,0.016537 0.01357,-0.00322 0.02713,-0.00643 0.04082,-0.0093 9e-4,-1.884e-4 0.0017,-3.969e-4 0.0026,-5.292e-4 6.62e-4,-9.52e-5 0.0014,-3.968e-4 0.0021,-5.291e-4 h 5.29e-4 c 0.02365,-0.0013 0.02668,0.024344 0,0.029972 -0.01922,0.00406 -0.03824,0.00896 -0.05736,0.013436 -0.05869,0.013618 -0.11776,0.024254 -0.17725,0.03359 -8.46e-4,2.268e-4 -0.0017,2.911e-4 -0.0026,5.292e-4 -0.01303,0.00366 -0.02563,0.00709 -0.03876,0.010335 -0.0189,0.00459 -0.03827,0.00867 -0.05736,0.012401 -0.02348,0.00425 -0.04704,0.00905 -0.07028,0.01447 -0.0014,3.44e-4 -0.0027,6.879e-4 -0.0041,0.00103 0.0096,0.00217 0.01929,0.0042 0.02894,0.0062 0.0052,0.00108 0.0103,0.00198 0.0155,0.0031 0.02866,0.00609 0.02251,0.035029 -0.0062,0.028939 -0.0052,-0.00111 -0.0103,-0.00201 -0.0155,-0.0031 -0.0205,-0.00425 -0.04096,-0.00924 -0.0615,-0.013435 -0.0079,-0.00161 -0.01586,-0.00302 -0.02377,-0.00465 -0.0014,3.969e-4 -0.0028,6.35e-4 -0.0041,0.00103 -0.02612,0.00737 -0.05205,0.015404 -0.07803,0.023254 -0.0168,0.00501 -0.03381,0.010602 -0.05064,0.015502 -0.01473,0.00428 -0.02383,-0.00169 -0.02532,-0.0093 -0.0081,0.00206 -0.01639,0.00293 -0.02429,0.00568 -0.02773,0.00968 -0.03729,-0.019076 -0.0093,-0.027905 0.0032,-0.00101 0.0065,-0.00177 0.0098,-0.00259 3.96e-4,-5.556e-4 0.0016,-0.00101 0.0021,-0.00156 5e-5,-0.00461 0.004,-0.00941 0.0098,-0.013435 -0.111021,0.017044 -0.222019,0.032664 -0.333313,0.048059 -0.02358,0.00319 -0.04722,0.00612 -0.0708,0.0093 -0.02912,0.00393 -0.03281,-0.025524 -0.0036,-0.029455 0.02354,-0.00318 0.04674,-0.00612 0.07028,-0.0093 0.10476,-0.014491 0.209545,-0.029517 0.314193,-0.045475 -0.01502,-0.00251 -0.02993,-0.0049 -0.04496,-0.00775 -0.01281,-0.00249 -0.02585,-0.00481 -0.03876,-0.00672 -0.01365,-0.00214 -0.02725,-0.00464 -0.04082,-0.00723 -0.01231,-0.00235 -0.02437,-0.00492 -0.03669,-0.00723 -0.0101,-0.00185 -0.0203,-0.00282 -0.03049,-0.00414 -0.01234,-0.00167 -0.02497,-0.00395 -0.03721,-0.0062 -0.0099,-0.00164 -0.01956,-0.00291 -0.02946,-0.00414 -0.0084,-0.00103 -0.01692,-0.00228 -0.02532,-0.00362 -0.02541,-0.00409 -0.02543,-0.027516 -0.0057,-0.029972 6.35e-4,-7.99e-5 0.0014,3.44e-5 0.0021,0 0.0023,-1.151e-4 0.0053,-5.82e-5 0.0077,5.292e-4 0.0083,0.00132 0.01653,0.00262 0.02481,0.00362 0.01035,0.00122 0.02072,0.00295 0.03101,0.00465 0.01194,0.0022 0.02363,0.00407 0.03566,0.00568 0.01065,0.00132 0.02148,0.00273 0.03204,0.00465 0.01241,0.00233 0.02481,0.00487 0.03721,0.00723 0.01324,0.00254 0.02647,0.00463 0.03979,0.00672 0.01327,0.00196 0.02663,0.00469 0.03979,0.00723 0.01752,0.00332 0.03511,0.00589 0.05271,0.00878 0.02052,0.00317 0.04106,0.00665 0.0615,0.010335 0.0055,0.00103 0.01103,0.00204 0.01654,0.0031 0.07959,-0.012626 0.158962,-0.02559 0.238229,-0.039791 0.08778,-0.015301 0.175497,-0.030921 0.263033,-0.047542 9e-4,-1.714e-4 0.0022,-4.233e-4 0.0031,-5.291e-4 0.0017,-2.038e-4 0.0032,-5.292e-4 0.0047,-5.292e-4 z m -0.487309,0.5136639 c 0.0016,-1.505e-4 0.0033,-7.64e-5 0.0052,0 0.09046,0.00378 0.180971,0.00994 0.271301,0.01602 0.09655,0.00679 0.19283,0.01401 0.289388,0.020672 0.02788,0.00209 0.05594,0.00352 0.08372,0.00672 l 0.0057,0.00103 c 0.02907,0.00435 0.02506,0.033399 -0.0047,0.028939 -0.0015,-2.233e-4 -0.0032,-2.911e-4 -0.0047,-5.292e-4 -0.02732,-0.00317 -0.05477,-0.00463 -0.08217,-0.00672 -0.09654,-0.00666 -0.192858,-0.013364 -0.289388,-0.020153 -0.08967,-0.00603 -0.179444,-0.012705 -0.269234,-0.016536 -0.02749,-0.00116 -0.02881,-0.027202 -0.0052,-0.029455 z m -0.03772,0.1979205 c 6.61e-4,-1.005e-4 0.0014,5.72e-5 0.0021,0 0.0023,-1.886e-4 0.0045,1.46e-5 0.0072,5.292e-4 0.02524,0.00317 0.05067,0.00564 0.07597,0.00827 0.03475,0.00358 0.0696,0.00667 0.104386,0.00982 0.03438,0.00308 0.06893,0.00619 0.103352,0.00878 0.02397,0.00177 0.04796,0.00287 0.07183,0.00568 0.02073,0.00282 0.04139,0.00629 0.06201,0.00982 0.0203,0.00347 0.04038,0.00781 0.06046,0.012401 0.01818,0.00448 0.0365,0.00835 0.05478,0.012401 0.01138,0.00259 0.02275,0.00514 0.03411,0.00775 0.04154,0.00246 0.08307,0.0052 0.124541,0.00775 0.02931,0.0018 0.02732,0.031256 -0.0021,0.029456 -0.0022,-1.379e-4 -0.0045,-3.705e-4 -0.0067,-5.292e-4 0.0032,0.00991 -0.0051,0.020058 -0.02377,0.014986 -0.0048,-0.00135 -0.01009,-0.00206 -0.01499,-0.0031 -0.01635,-0.00335 -0.03239,-0.00733 -0.04858,-0.011369 -0.01086,-0.00259 -0.02171,-0.00516 -0.03256,-0.00775 -0.02357,-0.0014 -0.04723,-0.00276 -0.0708,-0.00413 -0.0018,0.00662 -0.0077,0.012269 -0.02119,0.010335 -0.0256,-0.00366 -0.05089,-0.00761 -0.07648,-0.011369 -0.01739,-0.00254 -0.03479,-0.00516 -0.05219,-0.00775 -0.08245,-0.00509 -0.165168,-0.010729 -0.247013,-0.021704 -0.0066,-8.732e-4 -0.01126,-0.00289 -0.01447,-0.00568 -0.0043,-4.498e-4 -0.0086,-0.00114 -0.01292,-0.00156 -0.0094,-8.467e-4 -0.01902,-0.00172 -0.02842,-0.00259 -0.0017,-1.744e-4 -0.0034,-3.175e-4 -0.0052,-5.292e-4 -0.0016,-1.402e-4 -0.0031,-3.704e-4 -0.0047,-5.292e-4 -0.0034,-3.175e-4 -0.0065,-6.614e-4 -0.0098,-0.00103 -0.0033,-3.705e-4 -0.0069,-7.673e-4 -0.01034,-0.00103 -8.2e-4,-6.59e-5 -0.0018,-3.969e-4 -0.0026,-5.292e-4 -0.0014,-1.106e-4 -0.0028,-4.233e-4 -0.0041,-5.292e-4 -0.0034,-2.196e-4 -0.0068,-3.175e-4 -0.01033,-5.291e-4 -0.02642,-0.00143 -0.02766,-0.026345 -0.0062,-0.029973 -0.014,-0.00747 -0.01141,-0.023254 0.0046,-0.025839 z" /></clipPath></defs><g
     inkscape:label="Layer 1"
     inkscape:groupmode="layer"
     id="layer1"
     transform="translate(-5.7195048e-5,-5.7045048e-5)"><path
       id="path755"
       style="stroke-width:0.0425745"
       d="m 16.000057,6.4631712 c -0.187328,0 -0.340548,0.1532231 -0.340548,0.3405477 V 8.1064817 L 11.265462,7.4124672 C 10.17557,7.2421719 9.1880694,8.0854087 9.1880694,9.1880694 c 0,1.1026626 0.9875006,1.9458836 2.0773926,1.7756026 l 4.394047,-0.694015 v 3.005501 H 7.8258787 c 0,-0.753553 -0.6091505,-1.36219 -1.3627075,-1.36219 -0.7535558,0 -1.3621907,0.608637 -1.3621907,1.36219 v 10.899076 c 0,0.753569 0.6086349,1.362708 1.3621907,1.362708 0.753557,0 1.3627075,-0.609139 1.3627075,-1.362708 H 24.174234 c 0,0.753569 0.609156,1.362708 1.362708,1.362708 0.753552,0 1.362191,-0.609139 1.362191,-1.362708 V 13.275158 c 0,-0.753553 -0.608639,-1.36219 -1.362191,-1.36219 -0.753552,0 -1.362708,0.608637 -1.362708,1.36219 h -7.83363 v -3.005501 l 4.39353,0.694015 c 1.089891,0.170281 2.07791,-0.668683 2.07791,-1.7756026 0,-1.1069187 -0.988019,-1.9458975 -2.07791,-1.7756022 l -4.39353,0.6940145 V 6.8037189 c 0,-0.1873246 -0.153236,-0.3405477 -0.340547,-0.3405477 z m 4.966621,1.6092041 c 0.625169,-0.027648 1.16427,0.4730953 1.16427,1.1156941 0,0.6854368 -0.613442,1.2092106 -1.29036,1.1027746 L 16.340604,9.5797768 v -0.0031 c -0.0062,-6.998e-4 -0.01243,-0.00191 -0.0186,-0.0031 -0.01577,-0.00311 -0.03112,-0.00726 -0.04651,-0.011886 -0.01429,-0.00426 -0.02819,-0.00957 -0.04186,-0.015503 -0.01343,-0.00287 -0.02695,-0.00573 -0.04031,-0.00878 -0.0019,-3.984e-4 -0.0037,-0.00115 -0.0057,-0.00155 -0.0014,-2.847e-4 -0.0028,-2.307e-4 -0.0041,-5.168e-4 -0.0054,-6.439e-4 -0.01069,-0.00144 -0.01602,-0.00258 -0.004,-8.994e-4 -0.0079,-0.00214 -0.01188,-0.0031 -0.0012,-2.359e-4 -0.0024,-2.85e-4 -0.0036,-5.168e-4 -0.01021,-0.00197 -0.02028,-0.004 -0.03049,-0.0062 -0.0068,-0.0014 -0.0138,-0.00258 -0.02067,-0.00362 h -0.0067 -0.01809 -0.02067 c -0.0053,0 -0.0095,-10e-4 -0.01292,-0.00258 h -5.17e-4 c -0.0028,2.715e-4 -0.0054,7.092e-4 -0.0083,0.00103 -0.004,4.71e-4 -0.0079,0.00101 -0.01188,0.00155 -0.0021,2.86e-4 -0.0041,7.871e-4 -0.0062,0.00103 -0.001,1.408e-4 -0.0021,-1.427e-4 -0.0031,0 -0.0057,7.068e-4 -0.01134,0.00164 -0.01705,0.00258 -0.0024,3.318e-4 -0.0048,7.35e-4 -0.0072,0.00103 -0.0075,0.00126 -0.01485,0.00273 -0.02222,0.00413 -0.009,0.00178 -0.01777,0.00363 -0.02687,0.00465 -0.0084,9.8e-4 -0.01692,0.00195 -0.02532,0.0031 -0.0082,0.00117 -0.01619,0.00228 -0.02429,0.00362 -0.0069,0.00114 -0.01377,0.00262 -0.02067,0.00362 -0.0061,8.7e-4 -0.0125,0.0014 -0.0186,0.00207 -0.0083,9.8e-4 -0.0165,0.00177 -0.0248,0.00258 -0.0093,0.00101 -0.01871,0.00233 -0.02791,0.00362 -0.0076,9.2e-4 -0.01514,0.00152 -0.02274,0.00207 -0.0055,4.851e-4 -0.01104,7.353e-4 -0.01654,0.00103 -0.0076,6.3e-4 -0.01524,0.00152 -0.02274,0.00258 -0.0079,0.00111 -0.01535,0.00254 -0.02325,0.00413 -0.0041,8.7e-4 -0.0084,0.00158 -0.0124,0.00258 -0.0028,5.8e-4 -0.0054,0.00118 -0.0083,0.00155 -0.0035,5.769e-4 -0.0074,0.00129 -0.01085,0.00155 -0.0026,2.469e-4 -0.0052,7.399e-4 -0.0078,0.00103 -0.0028,4.388e-4 -0.0055,6.085e-4 -0.0083,0.00103 -0.0017,2.913e-4 -0.0035,7.269e-4 -0.0052,0.00103 v 0.00568 L 11.159525,10.290844 C 10.482607,10.39728 9.8691648,9.8735062 9.8691648,9.1880694 c 0,-0.6425988 0.5391392,-1.1428345 1.1642702,-1.1151774 0.04167,0.00184 0.08378,0.00575 0.12609,0.012402 l 4.146517,0.6552571 c 0.0047,5.452e-4 0.0093,0.00132 0.01395,0.00207 l 0.0026,5.167e-4 0.33693,0.053227 v 0.025321 c 0.006,0.00106 0.01209,0.00211 0.01809,0.0031 0.01771,0.00244 0.03496,0.00558 0.05271,0.00775 0.01216,0.0013 0.02447,0.00213 0.03669,0.00258 0.01195,3.629e-4 0.02422,4.317e-4 0.03617,5.167e-4 0.01612,8.59e-5 0.03194,-1.13e-5 0.04806,0 0.02781,-5.5e-4 0.0555,2.685e-4 0.0832,0.00258 0.03066,0.00287 0.06153,0.00739 0.09199,0.011885 0.0091,0.00129 0.01827,0.00216 0.02739,0.0031 0.04114,-1.1e-6 0.08242,7e-7 0.123507,0 0.02569,-2.7e-4 0.01543,-9.492e-4 0.04651,-0.00517 0.01777,-0.0033 0.03583,-0.00444 0.05374,-0.00672 0.02127,-0.00565 0.04228,-0.012153 0.06304,-0.019637 v -0.025321 l 4.499984,-0.7110677 c 0.04231,-0.00665 0.08441,-0.011076 0.12609,-0.012919 z M 6.4631712,12.594063 c 0.3746488,0 0.6810954,0.306455 0.6810954,0.681095 v 10.899076 c 0,0.374656 -0.3064466,0.681096 -0.6810954,0.681096 -0.3746489,0 -0.6810954,-0.30644 -0.6810954,-0.681096 V 13.275158 c 0,-0.37464 0.3064465,-0.681095 0.6810954,-0.681095 z m 19.0737708,0 c 0.374639,0 0.681095,0.306455 0.681095,0.681095 v 10.899076 c 0,0.374656 -0.306456,0.681096 -0.681095,0.681096 -0.374656,0 -0.681612,-0.30644 -0.681612,-0.681096 V 13.275158 c 0,-0.37464 0.306956,-0.681095 0.681612,-0.681095 z M 7.8258787,13.956254 h 8.1741783 8.174177 v 9.536885 H 7.8258787 Z"
       clip-path="url(#clipPath2281)" /><path
       style="fill:#e6e6e6;stroke-width:0.524176"
       d="m 29.615935,70.763738 v -17.55989 h 30.664286 30.664287 v 17.55989 17.559891 H 60.280221 29.615935 Z"
       id="path764"
       transform="scale(0.26458333)" /><path
       style="fill:#e6e6e6;stroke-width:0.524176"
       d="m 22.906484,92.936376 c -0.904036,-0.904036 -0.904036,-43.44124 0,-44.345276 0.975021,-0.97502 2.37482,-0.745766 3.272585,0.535973 1.227661,1.752732 1.227661,41.520598 0,43.27333 -0.897765,1.28174 -2.297564,1.510994 -3.272585,0.535973 z"
       id="path766"
       transform="scale(0.26458333)" /><path
       style="fill:#e6e6e6;stroke-width:0.524176"
       d="m 94.632181,92.551495 c -0.348095,-0.650421 -0.542618,-8.529297 -0.542618,-21.977944 0,-18.359328 0.102343,-21.066395 0.823705,-21.787757 0.981005,-0.981005 2.394277,-1.065283 3.264866,-0.194694 0.904037,0.904036 0.904037,43.44124 0,44.345276 -0.962973,0.962974 -2.939413,0.74845 -3.545953,-0.384881 z"
       id="path768"
       transform="scale(0.26458333)" /><path
       style="fill:#ff2a2a;stroke-width:0.187046"
       d="m 39.934317,38.513832 c -3.79368,-1.643227 -3.040226,-7.226692 1.05835,-7.842894 0.467918,-0.07035 3.817877,0.397071 9.60327,1.339948 4.886577,0.796392 9.389709,1.440728 10.00696,1.431859 0.617252,-0.0089 5.162469,-0.667777 10.100483,-1.464239 10.100438,-1.629119 9.900112,-1.623635 11.356117,-0.31091 1.51511,1.366013 1.851308,3.118877 0.942156,4.912204 -0.626316,1.235427 -1.82722,2.058464 -3.18081,2.179964 -0.815481,0.0732 -18.330676,-2.587575 -18.753486,-2.848886 -0.091,-0.05624 -4.393345,0.573509 -9.560756,1.39945 -5.16741,0.825942 -9.737817,1.498418 -10.156458,1.494391 -0.418641,-0.004 -1.055763,-0.134925 -1.415826,-0.290887 z"
       id="path2287"
       transform="scale(0.26458333)" /></g></svg>
